<svg xmlns="http://www.w3.org/2000/svg" xmlns:xlink="http://www.w3.org/1999/xlink" width="100" zoomAndPan="magnify" viewBox="0 0 75 30.000001" height="40" preserveAspectRatio="xMidYMid meet" version="1.0"><defs><clipPath id="74a80b7813"><path d="M 1.210938 0 L 73.789062 0 L 73.789062 29.03125 L 1.210938 29.03125 Z M 1.210938 0 " clip-rule="nonzero"/></clipPath><clipPath id="e2aa372f28"><path d="M 1.210938 0 L 55 0 L 55 14 L 1.210938 14 Z M 1.210938 0 " clip-rule="nonzero"/></clipPath><clipPath id="d033486db9"><path d="M 1.210938 17 L 73.546875 17 L 73.546875 29.03125 L 1.210938 29.03125 Z M 1.210938 17 " clip-rule="nonzero"/></clipPath></defs><g clip-path="url(#74a80b7813)"><path fill="#ffffff" d="M 1.210938 0 L 73.789062 0 L 73.789062 29.03125 L 1.210938 29.03125 Z M 1.210938 0 " fill-opacity="1" fill-rule="nonzero"/><path fill="#ffffff" d="M 1.210938 0 L 73.789062 0 L 73.789062 29.03125 L 1.210938 29.03125 Z M 1.210938 0 " fill-opacity="1" fill-rule="nonzero"/></g><g clip-path="url(#e2aa372f28)"><path fill="#000000" d="M 25.933594 -21.941406 L 54.554688 -50.558594 L 10.367188 -94.746094 L -18.25 -66.125 L -0.457031 -48.335938 C -4.09375 -44.722656 -16.367188 -32.519531 -20.855469 -27.851562 C -26.828125 -21.648438 -42.5 -8.183594 -51.382812 -0.644531 C -53.027344 0.746094 -54.011719 2.757812 -54.101562 4.910156 C -54.191406 7.058594 -53.375 9.148438 -51.855469 10.667969 L -51.570312 10.957031 C -50.046875 12.476562 -47.953125 13.289062 -45.804688 13.195312 C -43.652344 13.109375 -41.640625 12.125 -40.246094 10.484375 C -32.714844 1.589844 -19.261719 -14.085938 -13.058594 -20.054688 C -8.390625 -24.542969 3.851562 -36.769531 7.476562 -40.398438 L 25.933594 -21.941406 " fill-opacity="1" fill-rule="nonzero"/></g><g clip-path="url(#d033486db9)"><path fill="#000000" d="M 68.070312 22.769531 L 68.070312 17.222656 L 7.054688 17.222656 L 7.054688 22.769531 L 1.335938 22.769531 L 1.335938 29.011719 L 73.785156 29.011719 L 73.785156 22.769531 L 68.070312 22.769531 " fill-opacity="1" fill-rule="nonzero"/></g></svg>